Adsworth-8PTG1XT1db.ufo
<glyph name="E" format="2">
  <advance width="1414"/>
  <outline>
    <contour>
      <point x="168.0" y="0.0" type="line"/>
      <point x="168.0" y="1500.0" type="line"/>
      <point x="764.0" y="1500.0" type="line"/>
      <point x="764.0" y="0.0" type="line"/>
    </contour>
    <contour>
      <point x="1294.0" y="602.0" type="line"/>
      <point x="464.0" y="602.0" type="line"/>
      <point x="464.0" y="932.0" type="line"/>
      <point x="1294.0" y="932.0" type="line"/>
    </contour>
    <contour>
      <point x="1414.0" y="1090.0" type="line"/>
      <point x="464.0" y="1090.0" type="line"/>
      <point x="464.0" y="1500.0" type="line"/>
      <point x="1414.0" y="1500.0" type="line"/>
    </contour>
    <contour>
      <point x="1414.0" y="0.0" type="line"/>
      <point x="464.0" y="0.0" type="line"/>
      <point x="464.0" y="409.0" type="line"/>
      <point x="1414.0" y="409.0" type="line"/>
    </contour>
  </outline>
</glyph>
<glyph name="J" format="2">
  <advance width="1485"/>
  <outline>
    <contour>
      <point x="1327.0" y="500.0" type="line" smooth="yes"/>
      <point x="1327.0" y="184.0"/>
      <point x="921.0" y="-32.0"/>
      <point x="643.0" y="-32.0" type="qcurve" smooth="yes"/>
      <point x="621.0" y="-32.0" type="line" smooth="yes"/>
      <point x="303.0" y="-32.0"/>
      <point x="-12.0" y="186.0"/>
      <point x="-12.0" y="369.0" type="qcurve" smooth="yes"/>
      <point x="-12.0" y="674.0" type="line"/>
      <point x="507.0" y="674.0" type="line"/>
      <point x="507.0" y="421.0" type="line" smooth="yes"/>
      <point x="507" y="394"/>
      <point x="552.0" y="369.0"/>
      <point x="583.0" y="369.0" type="qcurve" smooth="yes"/>
      <point x="650" y="369" type="line" smooth="yes"/>
      <point x="674" y="369"/>
      <point x="706" y="375"/>
      <point x="706" y="406" type="qcurve" smooth="yes"/>
      <point x="706.0" y="1500.0" type="line"/>
      <point x="1327.0" y="1500.0" type="line"/>
    </contour>
  </outline>
</glyph>
<glyph name="K" format="2">
  <advance width="1521"/>
  <outline>
    <contour>
      <point x="168.0" y="0.0" type="line"/>
      <point x="168.0" y="1500.0" type="line"/>
      <point x="783.0" y="1500.0" type="line"/>
      <point x="776.0" y="950.0" type="line"/>
      <point x="853.0" y="1196.0" type="line"/>
      <point x="1025.0" y="1500.0" type="line"/>
      <point x="1605.0" y="1500.0" type="line"/>
      <point x="1040.0" y="605.0" type="line"/>
      <point x="922.0" y="674.0" type="line"/>
      <point x="776.0" y="466.0" type="line"/>
      <point x="783.0" y="0.0" type="line"/>
    </contour>
    <contour>
      <point x="756.0" y="670.0" type="line"/>
      <point x="1161.0" y="1063.0" type="line"/>
      <point x="1687.0" y="0.0" type="line"/>
      <point x="989.0" y="0.0" type="line"/>
    </contour>
  </outline>
</glyph>
<glyph name="L" format="2">
  <advance width="1388"/>
  <outline>
    <contour>
      <point x="168.0" y="0.0" type="line"/>
      <point x="168.0" y="1500.0" type="line"/>
      <point x="808.0" y="1500.0" type="line"/>
      <point x="808.0" y="0.0" type="line"/>
    </contour>
    <contour>
      <point x="1354.0" y="0.0" type="line"/>
      <point x="410.0" y="0.0" type="line"/>
      <point x="410.0" y="450.0" type="line"/>
      <point x="1354.0" y="450.0" type="line"/>
    </contour>
  </outline>
</glyph>
<glyph name="M" format="2">
  <advance width="2611"/>
  <outline>
    <contour>
      <point x="168.0" y="0.0" type="line"/>
      <point x="168.0" y="1500.0" type="line"/>
      <point x="989.0" y="1500.0" type="line"/>
      <point x="1316.0" y="674.0" type="line"/>
      <point x="1329.0" y="674.0" type="line"/>
      <point x="1655.0" y="1500.0" type="line"/>
      <point x="2443.0" y="1500.0" type="line"/>
      <point x="2443.0" y="0.0" type="line"/>
      <point x="1917.0" y="0.0" type="line"/>
      <point x="1917.0" y="852.0" type="line"/>
      <point x="1586.0" y="0.0" type="line"/>
      <point x="1035.0" y="0.0" type="line"/>
      <point x="704.0" y="853.0" type="line"/>
      <point x="704.0" y="0.0" type="line"/>
    </contour>
  </outline>
</glyph>
<glyph name="P" format="2">
  <advance width="1551"/>
  <outline>
    <contour>
      <point x="168.0" y="0.0" type="line"/>
      <point x="168.0" y="1500.0" type="line"/>
      <point x="766.0" y="1500.0" type="line"/>
      <point x="786.0" y="0.0" type="line"/>
    </contour>
    <contour>
      <point x="1056.0" y="315.0" type="qcurve" smooth="yes"/>
      <point x="668.0" y="315.0" type="line"/>
      <point x="668.0" y="702.0" type="line"/>
      <point x="817.0" y="702.0" type="line" smooth="yes"/>
      <point x="870" y="702"/>
      <point x="978" y="749"/>
      <point x="978.0" y="880.0" type="qcurve" smooth="yes"/>
      <point x="978.0" y="929.0" type="line" smooth="yes"/>
      <point x="978" y="1041"/>
      <point x="865" y="1107"/>
      <point x="828.0" y="1105.0" type="qcurve" smooth="yes"/>
      <point x="668.0" y="1105.0" type="line"/>
      <point x="668.0" y="1500.0" type="line"/>
      <point x="1030.0" y="1500.0" type="line" smooth="yes"/>
      <point x="1261.0" y="1500.0"/>
      <point x="1572.0" y="1211.0"/>
      <point x="1572.0" y="940.0" type="qcurve" smooth="yes"/>
      <point x="1572.0" y="930.0" type="line" smooth="yes"/>
      <point x="1572.0" y="605.0"/>
      <point x="1255.0" y="313.0"/>
    </contour>
  </outline>
</glyph>
<glyph name="Q" format="2">
  <advance width="2162"/>
  <outline>
    <contour>
      <point x="1064.0" y="-2.0" type="line" smooth="yes"/>
      <point x="610.0" y="-2.0"/>
      <point x="102" y="376.0"/>
      <point x="102.0" y="759.0" type="qcurve" smooth="yes"/>
      <point x="102.0" y="769.0" type="line" smooth="yes"/>
      <point x="102" y="1137"/>
      <point x="623.0" y="1528.0"/>
      <point x="1071.0" y="1528.0" type="qcurve" smooth="yes"/>
      <point x="1082.0" y="1528.0" type="line" smooth="yes"/>
      <point x="1518.0" y="1528.0"/>
      <point x="2060" y="1118"/>
      <point x="2060.0" y="744.0" type="qcurve" smooth="yes"/>
      <point x="2060.0" y="739.0" type="line" smooth="yes"/>
      <point x="2060" y="379"/>
      <point x="1491.0" y="-2.0"/>
      <point x="1075.0" y="-2.0" type="qcurve" smooth="yes"/>
    </contour>
    <contour>
      <point x="1081.0" y="372.0" type="line" smooth="yes"/>
      <point x="1202.0" y="372.0"/>
      <point x="1383" y="443"/>
      <point x="1383.0" y="652.0" type="qcurve" smooth="yes"/>
      <point x="1383.0" y="831.0" type="line" smooth="yes"/>
      <point x="1383.0" y="1038.0"/>
      <point x="1202" y="1114"/>
      <point x="1081.0" y="1114.0" type="qcurve" smooth="yes"/>
      <point x="1078.0" y="1114.0" type="line" smooth="yes"/>
      <point x="940" y="1114"/>
      <point x="779.0" y="1034.0"/>
      <point x="779.0" y="828.0" type="qcurve" smooth="yes"/>
      <point x="779.0" y="648.0" type="line" smooth="yes"/>
      <point x="779" y="444"/>
      <point x="918.0" y="372.0"/>
      <point x="1078.0" y="372.0" type="qcurve" smooth="yes"/>
    </contour>
    <contour>
      <point x="1123.0" y="159.0" type="line"/>
      <point x="2086.0" y="43.0" type="line"/>
      <point x="2086.0" y="-382.0" type="line"/>
      <point x="1124.0" y="-21.0" type="line"/>
    </contour>
  </outline>
</glyph>
<glyph name="S" format="2">
  <advance width="1659"/>
  <outline>
    <contour>
      <point x="1068.0" y="443.0" type="line" smooth="yes"/>
      <point x="1068.0" y="475.0"/>
      <point x="991" y="510"/>
      <point x="663.0" y="539.0" type="qcurve" smooth="yes"/>
      <point x="279" y="573"/>
      <point x="31" y="821.0"/>
      <point x="31.0" y="988.0" type="qcurve" smooth="yes"/>
      <point x="31.0" y="1013.0" type="line" smooth="yes"/>
      <point x="31" y="1201"/>
      <point x="422" y="1528"/>
      <point x="804.0" y="1528.0" type="qcurve" smooth="yes"/>
      <point x="816.0" y="1528.0" type="line" smooth="yes"/>
      <point x="1216" y="1528"/>
      <point x="1573" y="1314"/>
      <point x="1579.0" y="1119.0" type="qcurve" smooth="yes"/>
      <point x="1580.0" y="1086.0" type="line"/>
      <point x="1012.0" y="1086" type="line"/>
      <point x="1012.0" y="1090" type="line" smooth="yes"/>
      <point x="1012.0" y="1114"/>
      <point x="932" y="1154"/>
      <point x="839.0" y="1154" type="qcurve" smooth="yes"/>
      <point x="786.0" y="1154.0" type="line" smooth="yes"/>
      <point x="666" y="1154"/>
      <point x="618" y="1109"/>
      <point x="618.0" y="1087.0" type="qcurve" smooth="yes"/>
      <point x="618.0" y="1072.0" type="line" smooth="yes"/>
      <point x="618.0" y="1050.0"/>
      <point x="652" y="1008"/>
      <point x="998.0" y="989.0" type="qcurve" smooth="yes"/>
      <point x="1356" y="969"/>
      <point x="1647" y="736"/>
      <point x="1647.0" y="528.0" type="qcurve" smooth="yes"/>
      <point x="1647.0" y="514.0" type="line" smooth="yes"/>
      <point x="1647.0" y="288.0"/>
      <point x="1242.0" y="-33.0"/>
      <point x="837.0" y="-33.0" type="qcurve" smooth="yes"/>
      <point x="832.0" y="-33.0" type="line" smooth="yes"/>
      <point x="405.0" y="-33.0"/>
      <point x="10" y="223.0"/>
      <point x="10.0" y="398.0" type="qcurve" smooth="yes"/>
      <point x="10.0" y="448.0" type="line"/>
      <point x="555.0" y="446.0" type="line"/>
      <point x="555.0" y="423.0" type="line" smooth="yes"/>
      <point x="555" y="388"/>
      <point x="666" y="338"/>
      <point x="823.0" y="338.0" type="qcurve" smooth="yes"/>
      <point x="827.0" y="338.0" type="line" smooth="yes"/>
      <point x="999" y="338"/>
      <point x="1068" y="395"/>
      <point x="1068.0" y="418.0" type="qcurve" smooth="yes"/>
    </contour>
  </outline>
</glyph>
<glyph name="U" format="2">
  <advance width="1943"/>
  <outline>
    <contour>
      <point x="117.0" y="1500.0" type="line"/>
      <point x="727.0" y="1500.0" type="line"/>
      <point x="727.0" y="582.0" type="line" smooth="yes"/>
      <point x="727.0" y="525.0"/>
      <point x="857.0" y="446.0"/>
      <point x="971.0" y="446.0" type="qcurve" smooth="yes"/>
      <point x="973.0" y="446.0" type="line" smooth="yes"/>
      <point x="1092.0" y="446.0"/>
      <point x="1223.0" y="521.0"/>
      <point x="1223.0" y="582.0" type="qcurve" smooth="yes"/>
      <point x="1223.0" y="1500.0" type="line"/>
      <point x="1825.0" y="1500.0" type="line"/>
      <point x="1817.0" y="663.0" type="line" smooth="yes"/>
      <point x="1815.0" y="316.0"/>
      <point x="1394.0" y="-33.0"/>
      <point x="979.0" y="-33.0" type="qcurve" smooth="yes"/>
      <point x="967.0" y="-33.0" type="line" smooth="yes"/>
      <point x="578.0" y="-33.0"/>
      <point x="117.0" y="345.0"/>
      <point x="117.0" y="693.0" type="qcurve" smooth="yes"/>
    </contour>
  </outline>
</glyph>
<glyph name="Z" format="2">
  <advance width="1502"/>
  <outline>
    <contour>
      <point x="1489.0" y="0.0" type="line"/>
      <point x="19.0" y="0.0" type="line"/>
      <point x="14.0" y="425.0" type="line"/>
      <point x="679.0" y="1050.0" type="line"/>
      <point x="49.0" y="1050.0" type="line"/>
      <point x="49.0" y="1500.0" type="line"/>
      <point x="1439.0" y="1500.0" type="line"/>
      <point x="1439.0" y="1075.0" type="line"/>
      <point x="767.0" y="450.0" type="line"/>
      <point x="1489.0" y="450.0" type="line"/>
    </contour>
  </outline>
</glyph>
<glyph name="a" format="2">
  <advance width="1602"/>
  <outline>
    <contour>
      <point x="169.0" y="966.0" type="line"/>
      <point x="252.0" y="1000.0"/>
      <point x="610.0" y="1081.0"/>
      <point x="841.0" y="1081.0" type="qcurve" smooth="yes"/>
      <point x="1194.0" y="1081.0"/>
      <point x="1487" y="866"/>
      <point x="1492.0" y="642.0" type="qcurve" smooth="yes"/>
      <point x="1496.0" y="1.0" type="line"/>
      <point x="1008.0" y="1.0" type="line"/>
      <point x="946.0" y="674.0" type="line" smooth="yes"/>
      <point x="943" y="711"/>
      <point x="862.0" y="814.0"/>
      <point x="707.0" y="814.0" type="qcurve" smooth="yes"/>
      <point x="567.0" y="814.0"/>
      <point x="306.0" y="747.0"/>
      <point x="241.0" y="716.0" type="qcurve"/>
    </contour>
    <contour>
      <point x="1179.0" y="324.0" type="line"/>
      <point x="1140.0" y="202.0"/>
      <point x="794.0" y="-22.0"/>
      <point x="590" y="-22" type="qcurve" smooth="yes"/>
      <point x="382.0" y="-22.0"/>
      <point x="54.0" y="140.0"/>
      <point x="54.0" y="308.0" type="qcurve" smooth="yes"/>
      <point x="54.0" y="462.0"/>
      <point x="361.0" y="658.0"/>
      <point x="640.0" y="658.0" type="qcurve" smooth="yes"/>
      <point x="838.0" y="658.0"/>
      <point x="1095.0" y="582.0"/>
      <point x="1179.0" y="510.0" type="qcurve"/>
      <point x="1179.0" y="456.0" type="line"/>
      <point x="1101.0" y="474.0"/>
      <point x="853" y="494"/>
      <point x="780" y="494.0" type="qcurve" smooth="yes"/>
      <point x="604.0" y="494.0"/>
      <point x="560.0" y="438.0"/>
      <point x="560.0" y="367" type="qcurve" smooth="yes"/>
      <point x="560.0" y="302.0"/>
      <point x="600.0" y="264.0"/>
      <point x="778" y="264.0" type="qcurve" smooth="yes"/>
      <point x="859" y="264"/>
      <point x="1084.0" y="316.0"/>
      <point x="1179.0" y="423.0" type="qcurve"/>
    </contour>
  </outline>
</glyph>
<glyph name="ampersand" format="2">
  <advance width="1785"/>
  <outline>
    <contour>
      <point x="1068.0" y="862.0" type="line"/>
      <point x="1736.0" y="1125.0" type="line"/>
      <point x="1841.0" y="827.0" type="line"/>
      <point x="1160.0" y="599.0" type="line"/>
    </contour>
    <contour>
      <point x="898.0" y="647.0" type="line"/>
      <point x="683" y="647" type="line" smooth="yes"/>
      <point x="645" y="647"/>
      <point x="607.0" y="616.0"/>
      <point x="607" y="595" type="qcurve" smooth="yes"/>
      <point x="607.0" y="456" type="line" smooth="yes"/>
      <point x="607" y="420"/>
      <point x="640" y="375"/>
      <point x="696" y="375" type="qcurve" smooth="yes"/>
      <point x="1138" y="375.0" type="line" smooth="yes"/>
      <point x="1187" y="375"/>
      <point x="1266.0" y="451.0"/>
      <point x="1266" y="499" type="qcurve" smooth="yes"/>
      <point x="1266.0" y="527.0" type="line" smooth="yes"/>
      <point x="1266" y="573"/>
      <point x="1244.0" y="685.0"/>
      <point x="1244.0" y="702.0" type="qcurve"/>
      <point x="1575.0" y="791.0" type="line"/>
      <point x="1597.0" y="764.0"/>
      <point x="1665.0" y="558.0"/>
      <point x="1665.0" y="484.0" type="qcurve" smooth="yes"/>
      <point x="1665.0" y="479.0" type="line" smooth="yes"/>
      <point x="1665.0" y="292.0"/>
      <point x="1254.0" y="-36.0"/>
      <point x="882.0" y="-36.0" type="qcurve" smooth="yes"/>
      <point x="860.0" y="-36.0" type="line" smooth="yes"/>
      <point x="420.0" y="-36.0"/>
      <point x="38.0" y="222.0"/>
      <point x="38.0" y="405.0" type="qcurve" smooth="yes"/>
      <point x="38.0" y="424.0" type="line" smooth="yes"/>
      <point x="38.0" y="575.0"/>
      <point x="236.0" y="742.0"/>
      <point x="400.0" y="776.0" type="qcurve"/>
      <point x="292.0" y="815.0"/>
      <point x="147" y="983"/>
      <point x="147.0" y="1082.0" type="qcurve" smooth="yes"/>
      <point x="147.0" y="1138.0" type="line" smooth="yes"/>
      <point x="147" y="1305"/>
      <point x="447" y="1533"/>
      <point x="677.0" y="1533.0" type="qcurve" smooth="yes"/>
      <point x="742.0" y="1533.0" type="line" smooth="yes"/>
      <point x="976.0" y="1533.0"/>
      <point x="1231" y="1326"/>
      <point x="1234.0" y="1149.0" type="qcurve" smooth="yes"/>
      <point x="1234.0" y="1083.0" type="line"/>
      <point x="870.0" y="1083.0" type="line"/>
      <point x="870.0" y="1169.0" type="line" smooth="yes"/>
      <point x="870" y="1175"/>
      <point x="862.0" y="1181.0"/>
      <point x="851.0" y="1181.0" type="qcurve" smooth="yes"/>
      <point x="640.0" y="1181" type="line" smooth="yes"/>
      <point x="628" y="1181"/>
      <point x="617" y="1162"/>
      <point x="617.0" y="1148" type="qcurve" smooth="yes"/>
      <point x="617.0" y="982.0" type="line" smooth="yes"/>
      <point x="617.0" y="966.0"/>
      <point x="638" y="951"/>
      <point x="651" y="952.0" type="qcurve" smooth="yes"/>
      <point x="874.0" y="952.0" type="line"/>
    </contour>
  </outline>
</glyph>
<glyph name="backslash" format="2">
  <advance width="1144"/>
  <outline>
    <contour>
      <point x="1160.0" y="0.0" type="line"/>
      <point x="660.0" y="0.0" type="line"/>
      <point x="-100.0" y="1500.0" type="line"/>
      <point x="400.0" y="1500.0" type="line"/>
    </contour>
  </outline>
</glyph>
<glyph name="bracketright" format="2">
  <advance width="1040"/>
  <outline>
    <contour>
      <point x="912.0" y="-280.0" type="line"/>
      <point x="361.0" y="-280.0" type="line"/>
      <point x="361.0" y="1500.0" type="line"/>
      <point x="912.0" y="1500.0" type="line"/>
    </contour>
    <contour>
      <point x="24.0" y="-280.0" type="line"/>
      <point x="24.0" y="125.0" type="line"/>
      <point x="581.0" y="125.0" type="line"/>
      <point x="581.0" y="-280.0" type="line"/>
    </contour>
    <contour>
      <point x="24.0" y="1095.0" type="line"/>
      <point x="24.0" y="1500.0" type="line"/>
      <point x="586.0" y="1500.0" type="line"/>
      <point x="586.0" y="1095.0" type="line"/>
    </contour>
  </outline>
</glyph>
<glyph name="c" format="2">
  <advance width="1603"/>
  <outline>
    <contour>
      <point x="1589.0" y="398.0" type="line"/>
      <point x="1585.0" y="301" type="line" smooth="yes"/>
      <point x="1579" y="159"/>
      <point x="1219.0" y="-25"/>
      <point x="872.0" y="-25" type="qcurve" smooth="yes"/>
      <point x="861.0" y="-25.0" type="line" smooth="yes"/>
      <point x="487.0" y="-25.0"/>
      <point x="60.0" y="259.0"/>
      <point x="60.0" y="513.0" type="qcurve" smooth="yes"/>
      <point x="60.0" y="524.0" type="line" smooth="yes"/>
      <point x="60.0" y="785.0"/>
      <point x="493.0" y="1082.0"/>
      <point x="852.0" y="1082.0" type="qcurve" smooth="yes"/>
      <point x="864.0" y="1082.0" type="line" smooth="yes"/>
      <point x="1222.0" y="1082.0"/>
      <point x="1566" y="855"/>
      <point x="1585.0" y="682.0" type="qcurve" smooth="yes"/>
      <point x="1587.0" y="655.0" type="line"/>
      <point x="1076.0" y="655.0" type="line"/>
      <point x="1076.0" y="687.0" type="line" smooth="yes"/>
      <point x="1076" y="706"/>
      <point x="1032" y="739"/>
      <point x="908.0" y="739.0" type="qcurve" smooth="yes"/>
      <point x="811" y="739.0" type="line" smooth="yes"/>
      <point x="715" y="739.0"/>
      <point x="661.0" y="697.0"/>
      <point x="661.0" y="643.0" type="qcurve" smooth="yes"/>
      <point x="661.0" y="420.0" type="line" smooth="yes"/>
      <point x="661.0" y="361.0"/>
      <point x="756" y="304"/>
      <point x="820" y="304.0" type="qcurve" smooth="yes"/>
      <point x="931" y="304" type="line" smooth="yes"/>
      <point x="1024" y="304"/>
      <point x="1076" y="334"/>
      <point x="1081.0" y="370.0" type="qcurve" smooth="yes"/>
      <point x="1084.0" y="400.0" type="line"/>
    </contour>
  </outline>
</glyph>
<glyph name="comma" format="2">
  <advance width="1007"/>
  <outline>
    <contour>
      <point x="67.0" y="-126.0" type="line"/>
      <point x="252.0" y="335.0" type="line" smooth="yes"/>
      <point x="282" y="409"/>
      <point x="449.0" y="538.0"/>
      <point x="541.0" y="538.0" type="qcurve" smooth="yes"/>
      <point x="553.0" y="538.0" type="line" smooth="yes"/>
      <point x="658.0" y="538.0"/>
      <point x="841" y="359"/>
      <point x="841.0" y="279.0" type="qcurve" smooth="yes"/>
      <point x="841.0" y="262.0" type="line" smooth="yes"/>
      <point x="841" y="193"/>
      <point x="428.0" y="-151.0"/>
      <point x="263.0" y="-249.0" type="qcurve"/>
    </contour>
  </outline>
</glyph>
<glyph name="d" format="2">
  <advance width="1853"/>
  <outline>
    <contour>
      <point x="1738.0" y="0.0" type="line"/>
      <point x="1218.0" y="0.0" type="line"/>
      <point x="1178.0" y="1540.0" type="line"/>
      <point x="1738.0" y="1540.0" type="line"/>
    </contour>
    <contour>
      <point x="1269" y="762.0" type="qcurve" smooth="yes"/>
      <point x="1269" y="258.0" type="line" smooth="yes"/>
      <point x="1269" y="137.0"/>
      <point x="946" y="-25.0"/>
      <point x="705" y="-25.0" type="qcurve" smooth="yes"/>
      <point x="697" y="-25.0" type="line" smooth="yes"/>
      <point x="401" y="-25.0"/>
      <point x="60" y="284.0"/>
      <point x="60" y="515.0" type="qcurve" smooth="yes"/>
      <point x="60" y="528.0" type="line" smooth="yes"/>
      <point x="60" y="762.0"/>
      <point x="417" y="1083.0"/>
      <point x="711" y="1083.0" type="qcurve" smooth="yes"/>
      <point x="720" y="1083.0" type="line" smooth="yes"/>
      <point x="994" y="1083.0"/>
      <point x="1269" y="915.0"/>
    </contour>
    <contour>
      <point x="1202" y="617.0" type="line" smooth="yes"/>
      <point x="1202" y="697.0"/>
      <point x="1036" y="755.0"/>
      <point x="906" y="755.0" type="qcurve" smooth="yes"/>
      <point x="898" y="755.0" type="line" smooth="yes"/>
      <point x="772" y="755.0"/>
      <point x="613" y="693.0"/>
      <point x="613" y="609.0" type="qcurve" smooth="yes"/>
      <point x="613" y="422.0" type="line" smooth="yes"/>
      <point x="613" y="343.0"/>
      <point x="774" y="287.0"/>
      <point x="898" y="287.0" type="qcurve" smooth="yes"/>
      <point x="906" y="287.0" type="line" smooth="yes"/>
      <point x="1027" y="287.0"/>
      <point x="1202" y="331.0"/>
      <point x="1202" y="415.0" type="qcurve" smooth="yes"/>
    </contour>
  </outline>
</glyph>
<glyph name="dollar" format="2">
  <advance width="1660"/>
  <outline>
    <contour>
      <point x="1081.0" y="420.0" type="line" smooth="yes"/>
      <point x="1081.0" y="460.0"/>
      <point x="1015" y="496"/>
      <point x="669.0" y="527.0" type="qcurve" smooth="yes"/>
      <point x="305" y="560"/>
      <point x="63" y="813"/>
      <point x="63.0" y="1000.0" type="qcurve" smooth="yes"/>
      <point x="63.0" y="1005.0" type="line" smooth="yes"/>
      <point x="63" y="1235"/>
      <point x="475" y="1499"/>
      <point x="806.0" y="1499.0" type="qcurve" smooth="yes"/>
      <point x="817.0" y="1499.0" type="line" smooth="yes"/>
      <point x="1166" y="1499"/>
      <point x="1541.0" y="1297.0"/>
      <point x="1536.0" y="1081.0" type="qcurve" smooth="yes"/>
      <point x="1536.0" y="1060.0" type="line"/>
      <point x="1021.0" y="1060.0" type="line"/>
      <point x="1021.0" y="1077.0" type="line" smooth="yes"/>
      <point x="1021" y="1091"/>
      <point x="1010.0" y="1107.0"/>
      <point x="982.0" y="1107.0" type="qcurve" smooth="yes"/>
      <point x="623.0" y="1107.0" type="line" smooth="yes"/>
      <point x="609" y="1107"/>
      <point x="597" y="1096"/>
      <point x="597.0" y="1084.0" type="qcurve" smooth="yes"/>
      <point x="597.0" y="1033" type="line" smooth="yes"/>
      <point x="597.0" y="1010.0"/>
      <point x="659" y="981"/>
      <point x="967.0" y="952.0" type="qcurve" smooth="yes"/>
      <point x="1303" y="920"/>
      <point x="1610.0" y="716.0"/>
      <point x="1610.0" y="528.0" type="qcurve" smooth="yes"/>
      <point x="1610.0" y="494.0" type="line" smooth="yes"/>
      <point x="1610.0" y="278.0"/>
      <point x="1189" y="-3"/>
      <point x="836.0" y="-3.0" type="qcurve" smooth="yes"/>
      <point x="830.0" y="-3.0" type="line" smooth="yes"/>
      <point x="447" y="-3"/>
      <point x="39" y="222"/>
      <point x="46.0" y="396.0" type="qcurve" smooth="yes"/>
      <point x="46.0" y="421.0" type="line"/>
      <point x="556.0" y="419.0" type="line"/>
      <point x="556" y="401.0" type="line" smooth="yes"/>
      <point x="556" y="379"/>
      <point x="604.0" y="338.0"/>
      <point x="654" y="338.0" type="qcurve" smooth="yes"/>
      <point x="1030" y="338.0" type="line" smooth="yes"/>
      <point x="1061" y="338"/>
      <point x="1081" y="363"/>
      <point x="1081" y="379.0" type="qcurve" smooth="yes"/>
    </contour>
    <contour>
      <point x="633.0" y="-230.0" type="line"/>
      <point x="633.0" y="101.0" type="line"/>
      <point x="1013.0" y="101.0" type="line"/>
      <point x="1013.0" y="-230.0" type="line"/>
    </contour>
    <contour>
      <point x="633.0" y="1320.0" type="line"/>
      <point x="633.0" y="1633.0" type="line"/>
      <point x="1013.0" y="1633.0" type="line"/>
      <point x="1013.0" y="1320.0" type="line"/>
    </contour>
  </outline>
</glyph>
<glyph name="equal" format="2">
  <advance width="1920"/>
  <outline>
    <contour>
      <point x="1639.0" y="190.0" type="line"/>
      <point x="280.0" y="190.0" type="line"/>
      <point x="280.0" y="593.0" type="line"/>
      <point x="1639.0" y="593.0" type="line"/>
    </contour>
    <contour>
      <point x="1640.0" y="700.0" type="line"/>
      <point x="280.0" y="700.0" type="line"/>
      <point x="280.0" y="1105.0" type="line"/>
      <point x="1640.0" y="1105.0" type="line"/>
    </contour>
  </outline>
</glyph>
<glyph name="five" format="2">
  <advance width="1412"/>
  <outline>
    <contour>
      <point x="3.0" y="602.0" type="line"/>
      <point x="26.0" y="1500.0" type="line"/>
      <point x="1285.0" y="1500.0" type="line"/>
      <point x="1285.0" y="1085.0" type="line"/>
      <point x="407.0" y="1085.0" type="line"/>
      <point x="385.0" y="902.0" type="line"/>
      <point x="420.0" y="941.0"/>
      <point x="645.0" y="1009.0"/>
      <point x="748.0" y="1009.0" type="qcurve" smooth="yes"/>
      <point x="812.0" y="1009.0" type="line" smooth="yes"/>
      <point x="1130.0" y="1009.0"/>
      <point x="1401.0" y="759"/>
      <point x="1401.0" y="530.0" type="qcurve" smooth="yes"/>
      <point x="1401.0" y="500.0" type="line" smooth="yes"/>
      <point x="1401.0" y="269.0"/>
      <point x="1007.0" y="-25.0"/>
      <point x="704.0" y="-25.0" type="qcurve" smooth="yes"/>
      <point x="675.0" y="-25.0" type="line" smooth="yes"/>
      <point x="385.0" y="-25.0"/>
      <point x="15.0" y="194.0"/>
      <point x="4.0" y="352.0" type="qcurve" smooth="yes"/>
      <point x="-1.0" y="468.0" type="line"/>
      <point x="554.0" y="470.0" type="line"/>
      <point x="554.0" y="418" type="line" smooth="yes"/>
      <point x="554" y="385"/>
      <point x="615.0" y="331"/>
      <point x="648.0" y="331" type="qcurve" smooth="yes"/>
      <point x="703.0" y="331.0" type="line" smooth="yes"/>
      <point x="760.0" y="331.0"/>
      <point x="857" y="340"/>
      <point x="857.0" y="422.0" type="qcurve" smooth="yes"/>
      <point x="857.0" y="618.0" type="line" smooth="yes"/>
      <point x="857.0" y="674.0"/>
      <point x="801" y="722"/>
      <point x="741.0" y="722.0" type="qcurve" smooth="yes"/>
      <point x="650" y="722.0" type="line" smooth="yes"/>
      <point x="603" y="722"/>
      <point x="541" y="644.0"/>
      <point x="541" y="600.0" type="qcurve"/>
    </contour>
  </outline>
</glyph>
<glyph name="g" format="2">
  <advance width="1888"/>
  <outline>
    <contour>
      <point x="1267.0" y="844" type="qcurve" smooth="yes"/>
      <point x="1267.0" y="286" type="line" smooth="yes"/>
      <point x="1267.0" y="216"/>
      <point x="982.0" y="48"/>
      <point x="757.0" y="48" type="qcurve" smooth="yes"/>
      <point x="705.0" y="48" type="line" smooth="yes"/>
      <point x="379.0" y="48"/>
      <point x="60.0" y="309"/>
      <point x="60.0" y="567" type="qcurve" smooth="yes"/>
      <point x="60.0" y="590" type="line" smooth="yes"/>
      <point x="60.0" y="814"/>
      <point x="422.0" y="1083.0"/>
      <point x="719.0" y="1083.0" type="qcurve" smooth="yes"/>
      <point x="772.0" y="1083.0" type="line" smooth="yes"/>
      <point x="1000.0" y="1083.0"/>
      <point x="1267.0" y="933"/>
    </contour>
    <contour>
      <point x="1238.0" y="635" type="line" smooth="yes"/>
      <point x="1238.0" y="713"/>
      <point x="1064.0" y="755"/>
      <point x="928.0" y="755" type="qcurve" smooth="yes"/>
      <point x="920.0" y="755" type="line" smooth="yes"/>
      <point x="788.0" y="755"/>
      <point x="621.0" y="701"/>
      <point x="621.0" y="635" type="qcurve" smooth="yes"/>
      <point x="621.0" y="467" type="line" smooth="yes"/>
      <point x="621.0" y="387"/>
      <point x="791.0" y="338"/>
      <point x="920.0" y="338" type="qcurve" smooth="yes"/>
      <point x="928.0" y="338" type="line" smooth="yes"/>
      <point x="1053.0" y="338"/>
      <point x="1238.0" y="385"/>
      <point x="1238.0" y="459" type="qcurve" smooth="yes"/>
    </contour>
    <contour>
      <point x="289" y="-73.0" type="line"/>
      <point x="356" y="-88.0"/>
      <point x="545" y="-126.0"/>
      <point x="729" y="-126.0" type="qcurve" smooth="yes"/>
      <point x="1019" y="-126.0"/>
      <point x="1231" y="19.0"/>
      <point x="1236" y="208.0" type="qcurve" smooth="yes"/>
      <point x="1258.0" y="1040.0" type="line"/>
      <point x="1773.0" y="1040.0" type="line"/>
      <point x="1773" y="347.0" type="line" smooth="yes"/>
      <point x="1773" y="-149.0"/>
      <point x="1226" y="-490.0"/>
      <point x="919" y="-490.0" type="qcurve" smooth="yes"/>
      <point x="584" y="-490.0"/>
      <point x="370" y="-453.0"/>
      <point x="293" y="-437.0" type="qcurve"/>
    </contour>
  </outline>
</glyph>
<glyph name="k" format="2">
  <advance width="1591"/>
  <outline>
    <contour>
      <point x="123.0" y="0.0" type="line"/>
      <point x="123.0" y="1540.0" type="line"/>
      <point x="672.0" y="1540.0" type="line"/>
      <point x="672.0" y="0.0" type="line"/>
    </contour>
    <contour>
      <point x="995.0" y="558.0" type="line"/>
      <point x="641.0" y="264.0" type="line"/>
      <point x="641.0" y="640.0" type="line"/>
      <point x="737.0" y="756.0" type="line"/>
      <point x="1145.0" y="1040.0" type="line"/>
      <point x="1751.0" y="1040.0" type="line"/>
      <point x="1162.0" y="598.0" type="line"/>
    </contour>
    <contour>
      <point x="1147.0" y="841.0" type="line"/>
      <point x="1843.0" y="0.0" type="line"/>
      <point x="1194.0" y="0.0" type="line"/>
      <point x="739.0" y="567.0" type="line"/>
    </contour>
  </outline>
</glyph>
<glyph name="m" format="2">
  <advance width="2500"/>
  <outline>
    <contour>
      <point x="115.0" y="0.0" type="line"/>
      <point x="115.0" y="1040.0" type="line"/>
      <point x="665.0" y="1040.0" type="line"/>
      <point x="675.0" y="0.0" type="line"/>
    </contour>
    <contour>
      <point x="633" y="605" type="line"/>
      <point x="639" y="804"/>
      <point x="901" y="1079"/>
      <point x="1117" y="1079" type="qcurve" smooth="yes"/>
      <point x="1309" y="1079"/>
      <point x="1527" y="825"/>
      <point x="1527.0" y="604.0" type="qcurve" smooth="yes"/>
      <point x="1528.0" y="0.0" type="line"/>
      <point x="969.0" y="0.0" type="line"/>
      <point x="969.0" y="579" type="line" smooth="yes"/>
      <point x="969.0" y="627.0"/>
      <point x="912" y="672"/>
      <point x="863" y="672.0" type="qcurve" smooth="yes"/>
      <point x="807" y="672"/>
      <point x="697" y="580"/>
      <point x="653" y="506" type="qcurve"/>
    </contour>
    <contour>
      <point x="1482" y="609" type="line"/>
      <point x="1488" y="789"/>
      <point x="1768" y="1079"/>
      <point x="1967" y="1079" type="qcurve" smooth="yes"/>
      <point x="2186" y="1079"/>
      <point x="2392.0" y="816.0"/>
      <point x="2394.0" y="605.0" type="qcurve" smooth="yes"/>
      <point x="2394.0" y="0.0" type="line"/>
      <point x="1833.0" y="0.0" type="line"/>
      <point x="1833" y="595" type="line" smooth="yes"/>
      <point x="1833.0" y="636.0"/>
      <point x="1775" y="670"/>
      <point x="1727" y="670.0" type="qcurve" smooth="yes"/>
      <point x="1673" y="670"/>
      <point x="1548" y="581"/>
      <point x="1503" y="509" type="qcurve"/>
    </contour>
  </outline>
</glyph>
<glyph name="nine" format="2">
  <advance width="1526"/>
  <outline>
    <contour>
      <point x="921.0" y="981.0" type="qcurve"/>
      <point x="921.0" y="1048.0" type="line" smooth="yes"/>
      <point x="921" y="1099"/>
      <point x="894" y="1144"/>
      <point x="830.0" y="1144.0" type="qcurve" smooth="yes"/>
      <point x="711.0" y="1144.0" type="line" smooth="yes"/>
      <point x="670" y="1144"/>
      <point x="632" y="1101"/>
      <point x="632.0" y="1074.0" type="qcurve" smooth="yes"/>
      <point x="632.0" y="934.0" type="line" smooth="yes"/>
      <point x="632" y="895"/>
      <point x="679" y="848"/>
      <point x="720.0" y="848.0" type="qcurve" smooth="yes"/>
      <point x="811.0" y="848.0" type="line" smooth="yes"/>
      <point x="852" y="848"/>
      <point x="934" y="889"/>
      <point x="921.0" y="937.0" type="qcurve" smooth="yes"/>
      <point x="902.0" y="1007.0" type="line"/>
      <point x="1045.0" y="1006.0" type="line"/>
      <point x="1045.0" y="972.0" type="line" smooth="yes"/>
      <point x="1045" y="828"/>
      <point x="772" y="568.0"/>
      <point x="581.0" y="568.0" type="qcurve" smooth="yes"/>
      <point x="575.0" y="568.0" type="line" smooth="yes"/>
      <point x="332" y="568.0"/>
      <point x="44.0" y="803.0"/>
      <point x="44.0" y="1009.0" type="qcurve" smooth="yes"/>
      <point x="44.0" y="1044.0" type="line" smooth="yes"/>
      <point x="44.0" y="1243.0"/>
      <point x="419.0" y="1523.0"/>
      <point x="737.0" y="1523.0" type="qcurve" smooth="yes"/>
      <point x="746.0" y="1523.0" type="line" smooth="yes"/>
      <point x="1095.0" y="1523.0"/>
      <point x="1459.0" y="1190.0"/>
      <point x="1459.0" y="893.0" type="qcurve" smooth="yes"/>
      <point x="1459.0" y="788.0" type="line" smooth="yes"/>
      <point x="1459.0" y="439.0"/>
      <point x="788" y="-5"/>
      <point x="368.0" y="-11.0" type="qcurve" smooth="yes"/>
      <point x="292.0" y="-11.0" type="line"/>
      <point x="292.0" y="412.0" type="line"/>
      <point x="343.0" y="412.0" type="line" smooth="yes"/>
      <point x="703" y="412"/>
      <point x="963.0" y="669.0"/>
    </contour>
  </outline>
</glyph>
<glyph name="parenleft" format="2">
  <advance width="1040"/>
  <outline>
    <contour>
      <point x="707.0" y="-383.0" type="line"/>
      <point x="40.0" y="34.0"/>
      <point x="41.0" y="1187.0"/>
      <point x="691.0" y="1607.0" type="qcurve"/>
      <point x="1036.0" y="1268.0" type="line"/>
      <point x="543.0" y="938.0"/>
      <point x="605.0" y="221.0"/>
      <point x="1057.0" y="-69.0" type="qcurve"/>
    </contour>
  </outline>
</glyph>
<glyph name="percent" format="2">
  <advance width="2709"/>
  <outline>
    <contour>
      <point x="606.0" y="569.0" type="line" smooth="yes"/>
      <point x="349.0" y="569.0"/>
      <point x="-13.0" y="829.0"/>
      <point x="-13.0" y="1036.0" type="qcurve" smooth="yes"/>
      <point x="-13.0" y="1068.0" type="line" smooth="yes"/>
      <point x="-13.0" y="1275.0"/>
      <point x="345.0" y="1546.0"/>
      <point x="603.0" y="1546.0" type="qcurve" smooth="yes"/>
      <point x="609.0" y="1546.0" type="line" smooth="yes"/>
      <point x="871.0" y="1546.0"/>
      <point x="1232.0" y="1275.0"/>
      <point x="1232.0" y="1068.0" type="qcurve" smooth="yes"/>
      <point x="1232.0" y="1036.0" type="line" smooth="yes"/>
      <point x="1232.0" y="829.0"/>
      <point x="876.0" y="569.0"/>
      <point x="613.0" y="569.0" type="qcurve" smooth="yes"/>
    </contour>
    <contour>
      <point x="613.0" y="904.0" type="line" smooth="yes"/>
      <point x="743" y="904"/>
      <point x="764.0" y="916.0"/>
      <point x="764.0" y="1049.0" type="qcurve" smooth="yes"/>
      <point x="764.0" y="1053.0" type="line" smooth="yes"/>
      <point x="764.0" y="1186.0"/>
      <point x="743" y="1200"/>
      <point x="613.0" y="1200.0" type="qcurve" smooth="yes"/>
      <point x="611.0" y="1200.0" type="line" smooth="yes"/>
      <point x="472" y="1200"/>
      <point x="464.0" y="1191.0"/>
      <point x="464.0" y="1053.0" type="qcurve" smooth="yes"/>
      <point x="464.0" y="1049.0" type="line" smooth="yes"/>
      <point x="464.0" y="913.0"/>
      <point x="481" y="904"/>
      <point x="611.0" y="904.0" type="qcurve" smooth="yes"/>
    </contour>
    <contour>
      <point x="2086.0" y="-35.0" type="line" smooth="yes"/>
      <point x="1829.0" y="-35.0"/>
      <point x="1477.0" y="225.0"/>
      <point x="1477.0" y="432.0" type="qcurve" smooth="yes"/>
      <point x="1477.0" y="464.0" type="line" smooth="yes"/>
      <point x="1477.0" y="671.0"/>
      <point x="1825.0" y="942.0"/>
      <point x="2083.0" y="942.0" type="qcurve" smooth="yes"/>
      <point x="2089.0" y="942.0" type="line" smooth="yes"/>
      <point x="2351.0" y="942.0"/>
      <point x="2722.0" y="671.0"/>
      <point x="2722.0" y="464.0" type="qcurve" smooth="yes"/>
      <point x="2722.0" y="432.0" type="line" smooth="yes"/>
      <point x="2722.0" y="225.0"/>
      <point x="2356.0" y="-35.0"/>
      <point x="2093.0" y="-35.0" type="qcurve" smooth="yes"/>
    </contour>
    <contour>
      <point x="2082.0" y="291.0" type="line" smooth="yes"/>
      <point x="2212" y="291"/>
      <point x="2233.0" y="303.0"/>
      <point x="2233.0" y="436.0" type="qcurve" smooth="yes"/>
      <point x="2233.0" y="440.0" type="line" smooth="yes"/>
      <point x="2233.0" y="573.0"/>
      <point x="2212" y="587"/>
      <point x="2082.0" y="587.0" type="qcurve" smooth="yes"/>
      <point x="2080.0" y="587.0" type="line" smooth="yes"/>
      <point x="1941" y="587"/>
      <point x="1933.0" y="578.0"/>
      <point x="1933.0" y="440.0" type="qcurve" smooth="yes"/>
      <point x="1933.0" y="436.0" type="line" smooth="yes"/>
      <point x="1933.0" y="300.0"/>
      <point x="1950" y="291"/>
      <point x="2080.0" y="291.0" type="qcurve" smooth="yes"/>
    </contour>
    <contour>
      <point x="692.0" y="0.0" type="line"/>
      <point x="1662.0" y="1500.0" type="line"/>
      <point x="1982.0" y="1500.0" type="line"/>
      <point x="1022.0" y="0.0" type="line"/>
    </contour>
  </outline>
</glyph>
<glyph name="period" format="2">
  <advance width="1007"/>
  <outline>
    <contour>
      <point x="499.0" y="-40.0" type="line" smooth="yes"/>
      <point x="641.0" y="-40.0"/>
      <point x="822.0" y="129.0"/>
      <point x="822.0" y="255.0" type="qcurve" smooth="yes"/>
      <point x="822.0" y="273.0" type="line" smooth="yes"/>
      <point x="822.0" y="397.0"/>
      <point x="645.0" y="569.0"/>
      <point x="499.0" y="569.0" type="qcurve" smooth="yes"/>
      <point x="494.0" y="569.0" type="line" smooth="yes"/>
      <point x="358.0" y="569.0"/>
      <point x="185.0" y="397.0"/>
      <point x="185.0" y="273.0" type="qcurve" smooth="yes"/>
      <point x="185.0" y="255.0" type="line" smooth="yes"/>
      <point x="185.0" y="127.0"/>
      <point x="356.0" y="-40.0"/>
      <point x="494.0" y="-40.0" type="qcurve" smooth="yes"/>
    </contour>
  </outline>
</glyph>
<glyph name="quotedbl" format="2">
  <advance width="1354"/>
  <outline>
    <contour>
      <point x="146" y="762.0" type="line"/>
      <point x="74.0" y="1500.0" type="line"/>
      <point x="647.0" y="1500.0" type="line"/>
      <point x="575" y="762.0" type="line"/>
    </contour>
    <contour>
      <point x="779" y="762.0" type="line"/>
      <point x="707.0" y="1500.0" type="line"/>
      <point x="1280.0" y="1500.0" type="line"/>
      <point x="1208" y="762.0" type="line"/>
    </contour>
  </outline>
</glyph>
<glyph name="slash" format="2">
  <advance width="1144"/>
  <outline>
    <contour>
      <point x="-100.0" y="0.0" type="line"/>
      <point x="720.0" y="1500.0" type="line"/>
      <point x="1160.0" y="1500.0" type="line"/>
      <point x="340.0" y="0.0" type="line"/>
    </contour>
  </outline>
</glyph>
<glyph name="three" format="2">
  <advance width="1408"/>
  <outline>
    <contour>
      <point x="742" y="547.0" type="qcurve" smooth="yes"/>
      <point x="358.0" y="548.0" type="line"/>
      <point x="358.0" y="934.0" type="line"/>
      <point x="672.0" y="937.0" type="line" smooth="yes"/>
      <point x="753.0" y="937.0"/>
      <point x="819" y="956"/>
      <point x="819.0" y="1018.0" type="qcurve" smooth="yes"/>
      <point x="819.0" y="1095.0" type="line" smooth="yes"/>
      <point x="819.0" y="1125.0"/>
      <point x="781" y="1159"/>
      <point x="720" y="1159.0" type="qcurve" smooth="yes"/>
      <point x="664" y="1159.0" type="line" smooth="yes"/>
      <point x="579" y="1159"/>
      <point x="556.0" y="1138.0"/>
      <point x="556.0" y="1115" type="qcurve" smooth="yes"/>
      <point x="556.0" y="1031.0" type="line"/>
      <point x="52.0" y="1036.0" type="line"/>
      <point x="58.0" y="1125.0" type="line" smooth="yes"/>
      <point x="70" y="1301"/>
      <point x="383.0" y="1527.0"/>
      <point x="719" y="1527.0" type="qcurve" smooth="yes"/>
      <point x="749" y="1527" type="line" smooth="yes"/>
      <point x="1062.0" y="1527.0"/>
      <point x="1359.0" y="1318.0"/>
      <point x="1359.0" y="1174.0" type="qcurve" smooth="yes"/>
      <point x="1359.0" y="1154" type="line" smooth="yes"/>
      <point x="1359.0" y="1003.0"/>
      <point x="1152.0" y="835.0"/>
      <point x="977.0" y="806.0" type="qcurve"/>
      <point x="1157.0" y="776.0"/>
      <point x="1421.0" y="608.0"/>
      <point x="1421.0" y="443.0" type="qcurve" smooth="yes"/>
      <point x="1421.0" y="433.0" type="line" smooth="yes"/>
      <point x="1421.0" y="234.0"/>
      <point x="1031.0" y="-40.0"/>
      <point x="718.0" y="-40.0" type="qcurve"/>
      <point x="709.0" y="-40.0" type="line"/>
      <point x="394.0" y="-40.0"/>
      <point x="30.0" y="211.0"/>
      <point x="18.0" y="377.0" type="qcurve" smooth="yes"/>
      <point x="10.0" y="445.0" type="line"/>
      <point x="515.0" y="445.0" type="line"/>
      <point x="515" y="392.0" type="line" smooth="yes"/>
      <point x="515" y="330"/>
      <point x="549.0" y="304.0"/>
      <point x="602" y="304.0" type="qcurve" smooth="yes"/>
      <point x="752" y="304.0" type="line" smooth="yes"/>
      <point x="813.0" y="304.0"/>
      <point x="846" y="350.0"/>
      <point x="844" y="429.0" type="qcurve" smooth="yes"/>
      <point x="841" y="485" type="line" smooth="yes"/>
      <point x="840" y="511"/>
      <point x="791" y="544"/>
    </contour>
  </outline>
</glyph>
<glyph name="w" format="2">
  <advance width="2082"/>
  <outline>
    <contour>
      <point x="348.0" y="1.0" type="line"/>
      <point x="-60.0" y="1041.0" type="line"/>
      <point x="425.0" y="1041.0" type="line"/>
      <point x="621.0" y="468.0" type="line"/>
      <point x="818.0" y="1041.0" type="line"/>
      <point x="1310.0" y="1041.0" type="line"/>
      <point x="1509.0" y="468.0" type="line"/>
      <point x="1697.0" y="1041.0" type="line"/>
      <point x="2142.0" y="1041.0" type="line"/>
      <point x="1750.0" y="1.0" type="line"/>
      <point x="1250.0" y="1.0" type="line"/>
      <point x="1048.0" y="521.0" type="line"/>
      <point x="849.0" y="1.0" type="line"/>
    </contour>
  </outline>
</glyph>
